<?xml version="1.0" encoding="UTF-8"?>
<svg id="Layer_1" data-name="Layer 1" xmlns="http://www.w3.org/2000/svg" viewBox="0 0 257.35 147.04">
  <defs>
    <style>
      .cls-1 {
        fill: #000;
        stroke-width: 0px;
      }
    </style>
  </defs>
  <path class="cls-1" d="M158.9,40.16l-30.2,30.2-30.2-30.2,30.2-30.2,10.41,10.41-5.78,5.78-4.63-4.63-18.63,18.66,8.53,8.53,20.18-20.18,11.63,11.63-21.72,21.72-3.92-3.92-2.7,2.7,6.62,6.62,27.12-27.12-8.16-8.16,1.54-1.54,9.7,9.7ZM128.7,58.8l18.64-18.64-8.55-8.55-20.18,20.18-11.61-11.61,21.7-21.74,4.63,4.63,2.7-2.7-7.33-7.33-27.12,27.12,18.96,18.96,4.24-4.24,3.92,3.92ZM168.86,40.16l-40.16,40.16-40.16-40.16L128.7,0l40.16,40.16ZM128.7,77.24l37.08-37.08L128.7,3.08l-37.08,37.08,37.08,37.08Z"/>
  <g>
    <g>
      <path class="cls-1" d="M28.25,100.63c-1.87-7.19-9.48-11.9-16.37-8.19-8.96,5.18-9.36,21.92.21,26.65,6.64,3.3,14.57-1.04,16.12-8.1h.49l-.12,9.05h-.49c-.42-.55-1.22-1.7-1.77-1.85-.06,0-.3.14-.74.43-4.33,2.68-11.14,2.83-15.88,1.15-14-4.73-12.36-25.34,1.77-28.73,4.44-1.17,10.41-.59,14.19,1.85.44.3.69.45.74.45.73-.38,1.39-1.27,1.89-1.97h.45v9.21l-.49.04Z"/>
      <path class="cls-1" d="M62.97,120.7c-1.1-1.06-1.41-1.74-2.39-3.13-1.9-2.84-3.35-5.24-5.64-7.82-1.92-2.16-3.04-3.03-5.96-3,0,2.91-.03,5.5.04,7.98.12,1.44-.15,2.72.53,3.83.8,1.11,2.21,1.67,3.91,1.73v.41h-13.16v-.41c1.45-.29,3.37-.59,3.78-2.22.49-2.48.28-4.89.39-7.51.03-1.52.02-3.31.02-4.79,0-1.08.02-8.62-.02-9.52-.07-3.33-.44-4.29-3.93-4.75v-.41c4.95.05,11.31-.21,16.17.12,4.21.31,8.09,3.2,7.94,7.77.09,3.97-3.33,6.5-6.79,7.57v.12c1.06.56,1.89,1.62,2.63,2.63.71,1.04,1.49,2.17,2.32,3.37,2.44,3.42,4.3,7.09,8.58,7.61v.41h-8.43ZM58.89,95.08c-1.94-3.11-6.19-3.77-9.58-3.29-.34,2.09-.23,4.09-.31,6.42-.03,2.55-.02,5.71-.02,8.02,2.87-.02,5.88-.2,8.23-1.85,2.88-2.02,3.53-6.43,1.69-9.3Z"/>
      <path class="cls-1" d="M95.46,120.7v-.41c1.02-.1,2.87-.53,2.88-1.89,0-.25-.08-.65-.23-1.21-.71-2.49-1.76-5.26-2.74-7.84h-10.94c-.8,2.04-1.55,3.85-2.34,5.84-1.52,3.84-1.16,4.56,2.55,5.1v.41h-8.76v-.45c.95-.04,2.22-.7,2.71-1.19.19-.19.51-.64.95-1.36,1.21-2.02,2.38-4.97,3.54-7.57,2.16-4.92,4.46-10.39,6.54-15.3l-.41-.9c1.56-.66,2.83-2.02,3.62-3.41h.33c2.29,6.1,4.47,11.93,6.66,17.87.92,2.38,1.85,5.11,2.82,7.36.39.76.66,1.64,1.25,2.49.8,1.12,2.08,1.95,3.58,1.97v.49h-12.01ZM90.07,95.77c-1.72,4-3.52,8.39-5.27,12.71h10.24c-1.57-4.15-3.39-8.71-4.98-12.71Z"/>
      <path class="cls-1" d="M141.12,98.2c-1.92-2.31-3.77-4.54-6.17-5.76-2.77-1-7.12-.79-10.32-.66-.46,2.06-.38,4.07-.43,6.31-.03,2.3-.02,5.08-.02,7.14,2.93-.08,7.17.2,9.01-2.47.72-1.06.83-2.25,1.07-3.54h.49v13.24h-.49c-1.66-6.37-4.03-6.7-10.08-6.58,0,2.91,0,6.05.04,8.88.18,3.86-.1,5.34,4.44,5.51v.41h-13.16v-.41c1.44-.29,3.25-.73,3.7-2.28.61-2.44.35-4.85.47-7.45.05-3.14,0-9.6.02-12.81,0-.96-.02-2.06-.1-3-.08-.73-.16-1.57-.6-2.06-.94-.99-1.75-.94-3.13-1.19v-.41h22.87l2.8,6.91-.41.21Z"/>
      <path class="cls-1" d="M179.95,98.82c-.44-.99-1.1-2.14-1.71-3.04-.93-1.39-1.98-2.87-3.58-3.27-2.4-.53-5.23-.29-7.79-.35-.07,6.85-.03,15.66-.04,22.58-.04,4.06.19,4.79,4.24,5.55v.41h-13.37v-.41c1.59-.22,2.83-.39,3.99-1.77.14-.14.24-.36.31-.68.35-1.76.23-3.37.29-5.24.12-4.58.04-15.71.06-20.44-1.88-.01-3.35.01-5.22.04-2.3.05-3.85.55-5.2,2.39-.93,1.24-1.99,2.74-2.49,4.24l-.37-.12,1.23-7.82c2.06.54,4.69.51,6.87.56,2.61.04,4.82.01,7.49.02,2.69,0,4.88,0,7.49-.06.82-.01,1.75-.02,2.8-.02,1.68-.05,2.6-.26,4.07-.7l1.32,8.02-.37.12Z"/>
      <path class="cls-1" d="M214.29,120.7h-25.17v-.41c1.44-.29,3.25-.73,3.7-2.28.61-2.44.35-4.85.47-7.45.05-3.14,0-9.6.02-12.81,0-.96-.02-2.06-.1-3-.08-.73-.16-1.57-.6-2.06-.94-.99-1.75-.94-3.13-1.19v-.41h22.71l2.8,6.79-.41.21c-2.22-2.77-4.31-4.63-6.25-5.59-.47-.22-1.33-.41-2.59-.58-1.99-.25-5.47-.39-7.73-.04-.3,3.73-.2,9.42-.16,13.37,2.81-.06,6.72.19,8.58-2.3.78-1.07,1.06-2.33,1.38-3.7h.49v12.96h-.49c-1.73-6.13-4.08-6.39-9.91-6.29-.13,1.06-.07,2.75-.08,3.99,0,2.39-.02,5.04.18,7.38.07.78.23,1.36.47,1.75.25.38.84.66,1.77.82.93.16,1.95.25,3.04.25,6.74.08,9.15-1.46,12.63-7.36l.45.12-2.06,7.86Z"/>
      <path class="cls-1" d="M256.58,110.91c-1.64,5.74-6.87,8.82-12.46,9.52-2.71.5-15.96.19-18.92.27v-.41c1.32-.2,3.46-.77,3.76-2.22.5-2.48.31-4.89.41-7.51.03-1.52.02-3.31.02-4.79,0-1.05,0-8.62,0-9.5.04-3.28-.69-4.38-4.03-4.77v-.41c3.77,0,8.14-.05,12.83-.04,3.62-.01,7.35-.09,10.74,1.4,7.59,3.2,9.77,10.97,7.65,18.47ZM251.52,100.92c-.95-2.92-2.71-5.46-5.18-7.2-1.74-1.26-3.65-1.7-5.76-1.91-1.87-.18-4.48-.13-6.42.23-.44,5.32-.23,12.84-.29,18.8.02,2.49-.04,3.88.25,6.07.15,1.72,1.1,2.65,2.78,2.96,4.93.93,10.67-.8,13.16-5.22,2.13-3.49,2.92-9.35,1.46-13.72Z"/>
    </g>
    <g>
      <path class="cls-1" d="M71.21,145.06c-1.15,2.27-4.79,2.31-6.79,1.33-.12-.08-.2-.11-.24-.11-.13.05-.4.43-.5.57h-.15l-.05-3.23h.16c.49,1.31,1.33,2.61,2.74,2.99,1.67.54,3.64-.41,3.57-2.29-.07-2.83-4.42-2.08-5.75-4.1-1.06-1.29-.78-3.42.53-4.39,1.29-1.01,3.4-1.03,4.83-.44.29.11.52.29.69.39.13-.04.38-.44.49-.58h.18v3h-.18c-.4-1.07-1.09-2.16-2.14-2.68-1.15-.56-2.88-.22-3.4,1.05-.6,1.49.21,2.7,1.68,3.19,1.34.56,3.13.8,4.02,1.99.68.82.81,2.35.29,3.32Z"/>
      <path class="cls-1" d="M97.82,135.64c-.54.34-.66,1.02-.71,1.67-.09,1.04-.06,1.94-.11,3.04-.1,1.48.14,3.35-.67,4.78-1.06,2.02-4.13,2.17-6.1,1.65-3.27-.97-2.71-4.11-2.72-6.82,0,0,0-2.16,0-2.16.01-1.37.1-2.32-1.56-2.47v-.16h4.84v.16c-1.34.15-1.54.83-1.5,2.05-.02,1.26,0,2.62,0,3.86.02.99-.06,2.12.28,3.03.63,2.09,2.91,2.6,4.77,2.02,2.37-.71,2.36-3.52,2.33-5.54,0-1.11.02-2.18-.03-3.28.02-1.24-.56-2-1.88-2.14v-.16h4.03v.16c-.4.05-.72.16-.95.31Z"/>
      <path class="cls-1" d="M122.33,139.64c-.94,2.36-3.9,2.36-6.04,2.34,0,1.19,0,2.31.05,3.44.03.9.83,1.24,1.72,1.28v.16h-5.2v-.16c1.28-.21,1.59-.53,1.61-1.83.04-1.24.05-2.63.05-3.9v-3.17c-.05-1.61.16-2.28-1.72-2.47v-.16c2.06.03,4.5-.15,6.51.07,2.15.21,3.84,2.23,3.02,4.39ZM120.29,136.8c-.77-1.3-2.45-1.58-3.82-1.35-.21.87-.14,1.62-.17,2.63-.01,1.15,0,2.63,0,3.67,1.44.05,3.11-.17,3.93-1.44.69-.99.75-2.51.07-3.51Z"/>
      <path class="cls-1" d="M146.17,139.64c-.94,2.36-3.9,2.36-6.04,2.34,0,1.19,0,2.31.05,3.44.03.9.83,1.24,1.72,1.28v.16h-5.2v-.16c1.28-.21,1.59-.53,1.61-1.83.04-1.24.05-2.63.05-3.9v-3.17c-.05-1.61.16-2.28-1.72-2.47v-.16c2.06.03,4.5-.15,6.51.07,2.15.21,3.84,2.23,3.02,4.39ZM144.13,136.8c-.77-1.3-2.45-1.58-3.82-1.35-.12.44-.12.73-.15,1.25-.04,1.5-.03,3.59-.03,5.05,1.44.05,3.11-.17,3.93-1.44.69-.99.75-2.51.07-3.51Z"/>
      <path class="cls-1" d="M171.01,146.86h-10.42v-.16c1.26-.23,1.67-.52,1.71-1.84.06-1.24.05-2.63.06-3.89,0,0,0-3.15,0-3.15.03-1.47.04-2.29-1.66-2.48v-.16h5.18v.16c-1.69.22-1.76.96-1.73,2.47-.03,1.3-.02,2.65-.02,3.96,0,.94.01,1.76.02,2.73.04.54-.03,1.27.21,1.69.04.05.13.11.26.16,1.27.42,2.78.32,4.09.03,1.5-.35,2.26-1.57,2.74-2.91l.16.05-.6,3.35Z"/>
      <path class="cls-1" d="M195,135.56c-.78.39-1.18,1.12-1.67,1.85-.75,1.14-1.75,2.7-2.5,3.83v3.26c-.03,1.44.05,1.97,1.56,2.19v.16h-5v-.16c.63-.09.96-.14,1.41-.67.22-.32.18-.83.22-1.23.02-1.07.04-1.94.04-3.13-.82-1.29-1.76-2.9-2.6-4.19-.61-.84-1.05-2.01-2.16-2.14v-.16h4.92v.16c-.85.05-1.88.23-1.18,1.32.79,1.43,1.76,2.9,2.61,4.33.68-1.02,1.56-2.38,2.18-3.43.78-1.26.99-2.08-.8-2.22v-.16h3.75v.16c-.3.04-.56.12-.78.23Z"/>
    </g>
  </g>
</svg>