<?xml version="1.0" encoding="UTF-8"?>
<svg id="Layer_2" data-name="Layer 2" xmlns="http://www.w3.org/2000/svg" viewBox="0 0 26 26">
  <defs>
    <style>
      .cls-1 {
        fill: #231f20;
        stroke-width: 0px;
      }
    </style>
  </defs>
  <g id="Layer_1-2" data-name="Layer 1">
    <g>
      <path class="cls-1" d="M18.64,26H7.36c-4.06,0-7.36-3.3-7.36-7.36V7.36C0,3.3,3.3,0,7.36,0h11.29c4.06,0,7.36,3.3,7.36,7.36v11.29c0,4.06-3.3,7.36-7.36,7.36ZM7.36,2.54c-2.66,0-4.82,2.16-4.82,4.82v11.29c0,2.66,2.16,4.82,4.82,4.82h11.29c2.66,0,4.82-2.16,4.82-4.82V7.36c0-2.66-2.16-4.82-4.82-4.82H7.36Z"/>
      <path class="cls-1" d="M13,19.97c-3.84,0-6.97-3.13-6.97-6.97s3.13-6.97,6.97-6.97,6.97,3.13,6.97,6.97-3.13,6.97-6.97,6.97ZM13,8.37c-2.55,0-4.63,2.08-4.63,4.63s2.08,4.63,4.63,4.63,4.63-2.08,4.63-4.63-2.08-4.63-4.63-4.63Z"/>
      <circle class="cls-1" cx="19.97" cy="6.03" r="1.6"/>
    </g>
  </g>
</svg>